<?xml version="1.0" encoding="utf-8"?>
<!-- Generator: Adobe Illustrator 24.0.1, SVG Export Plug-In . SVG Version: 6.00 Build 0)  -->
<svg version="1.1" id="Capa_1" xmlns="http://www.w3.org/2000/svg" xmlns:xlink="http://www.w3.org/1999/xlink" x="0px" y="0px"
	 viewBox="0 0 469 469.9" style="enable-background:new 0 0 469 469.9;" xml:space="preserve">
<path d="M116.8,0.3c1,0,2.1,0,3.1,0c3.5,0,6.9,0,10.4,0c2.5,0,5,0,7.5,0c7.5,0,15,0,22.4,0c3.5,0,7.1,0,10.6,0c11.8,0,23.5,0,35.3,0
	c3,0,6.1,0,9.1,0c1.1,0,1.1,0,2.3,0c12.2,0,24.5,0,36.7-0.1c12.6,0,25.2-0.1,37.8-0.1c7.1,0,14.1,0,21.2,0c6.7,0,13.3,0,20,0
	c2.4,0,4.9,0,7.3,0c37-0.2,67.9,10.9,94.6,37c20.7,21,33.8,50.7,33.7,80.4c0,1,0,2.1,0,3.2c0,3.5,0,6.9,0,10.4c0,2.5,0,5,0,7.5
	c0,6.1,0,12.1,0,18.2c0,4.9,0,9.9,0,14.8c0,14,0,28,0,42c0,0.8,0,1.5,0,2.3c0,0.8,0,1.5,0,2.3c0,12.2,0,24.4,0,36.6
	c0,12.6,0,25.1,0,37.7c0,7,0,14.1,0,21.1c0,6.6,0,13.3,0,19.9c0,2.4,0,4.8,0,7.3c0.2,36.9-10.9,67.9-37.1,94.5
	c-19.3,19-47.8,33-75.1,33.7c-1.1,0-2.2,0.1-3.3,0.1c-1.8,0-1.8,0-3.6,0.1c-1.8,0-1.8,0-3.7,0.1c-2.6,0.1-5.1,0.1-7.7,0.2
	c-3.9,0.1-7.9,0.2-11.8,0.3c-2.5,0.1-5,0.1-7.5,0.2c-1.8,0.1-1.8,0.1-3.5,0.1c-6.2,0.1-10.9,0.1-16.2-3.2c-3-4-3.4-7-3.4-12
	c0-0.7,0-1.4,0-2.1c0-2.3,0-4.6,0-6.9c0-1.7,0-3.3,0-5c0-4.5,0-9,0-13.5c0-4.7,0-9.4,0-14.1c0-7.9,0-15.8,0-23.7
	c0-9.1,0-18.3,0-27.4c0-7.8,0-15.7,0-23.5c0-4.7,0-9.4,0-14.1c0-4.4,0-8.8,0-13.2c0-1.6,0-3.2,0-4.9c0-2.2,0-4.4,0-6.6
	c0-1.2,0-2.5,0-3.7c0.4-3.6,1.2-5.4,3.4-8.2c3.2-2.1,4-2.2,7.7-2.2c1,0,1.9,0,2.9,0c1,0,2.1,0,3.1,0c1.1,0,2.1,0,3.2,0
	c3.4,0,6.8,0,10.2,0.1c2.3,0,4.6,0,6.9,0c5.6,0,11.3,0.1,16.9,0.1c0-0.8,0.1-1.5,0.1-2.3c0.6-8.9,1.9-17.7,3.4-26.5
	c0.2-1.4,0.5-2.8,0.7-4.2c0.6-3.3,1.1-6.7,1.7-10c-1,0-1,0-1.9,0c-6.7,0.1-13.3,0.1-20,0.1c-2.5,0-5,0-7.5,0.1
	c-3.6,0-7.2,0.1-10.7,0.1c-1.1,0-2.2,0-3.4,0c-1,0-2.1,0-3.2,0c-0.9,0-1.8,0-2.8,0c-4.3-0.6-6.8-2.3-9.4-5.7c-1.3-2.9-1.6-4.8-1.6-8
	c0-1,0-2.1,0-3.2c0-1.7,0-1.7,0-3.4c0-1.2,0-2.3,0-3.5c0-2.5,0-4.9,0-7.4c0-3.7,0-7.5,0-11.2c0-2.4,0-4.8,0-7.2c0-1.7,0-1.7,0-3.4
	c0.1-10.4,2-20.9,8.4-29.4c8.6-8.1,17.8-9.2,29.2-9.1c1.1,0,1.1,0,2.3,0c2.8,0,5.6,0,8.4,0c9.4,0,9.4,0,19.1,0.1c0-13.2,0-26.4,0-40
	c-22.4-1.7-46.2-3.5-68,3c-0.7,0.2-1.3,0.4-2,0.6c-13.8,4.1-27.8,11-35.1,24c-4,7.6-6.1,13.5-6.1,22c0,0.8,0,1.5,0,2.3
	c0,1.6,0,3.3,0,4.9c0,2.6,0,5.2-0.1,7.8c-0.1,7.4-0.1,14.8-0.1,22.3c0,4.5-0.1,9.1-0.1,13.6c0,1.7,0,3.5,0,5.2c0,2.4,0,4.8-0.1,7.3
	c0,1.1,0,1.1,0,2.1c-0.1,5-1.2,8.4-3.4,12.8c-4.4,4.3-10.4,3.4-16.2,3.3c-1.1,0-2.2,0-3.3,0c-3.4,0-6.9-0.1-10.3-0.1
	c-2.3,0-4.7,0-7,0c-5.7,0-11.4-0.1-17.2-0.1c0,14.2,0,28.4,0,43c3.5-0.1,7.1-0.1,10.7-0.2c3.4,0,6.9-0.1,10.3-0.1
	c2.4,0,4.8-0.1,7.2-0.1c3.4-0.1,6.9-0.1,10.3-0.1c1.1,0,2.1-0.1,3.2-0.1c8.3,0,8.3,0,12,2.8c3.7,4.3,3.5,7.8,3.5,13.4
	c0,0.7,0,1.3,0,2c0,2.3,0,4.5,0,6.8c0,1.6,0,3.2,0,4.8c0,4.4,0,8.8,0,13.2c0,2.7,0,5.5,0,8.2c0,8.6,0,17.2,0,25.7
	c0,9.9,0,19.8,0.1,29.7c0,7.7,0,15.3,0,23c0,4.6,0,9.1,0,13.7c0,4.3,0,8.6,0,12.9c0,1.6,0,3.2,0,4.7c0,2.2,0,4.3,0,6.5
	c0,1.2,0,2.4,0,3.7c-0.4,4.1-1.5,6.7-3.4,10.4c-6.1,4-12.8,3.4-19.9,3.3c-1.3,0-2.6,0-3.9,0c-3.5,0-7,0-10.6-0.1c-3,0-5.9,0-8.9-0.1
	c-7,0-14-0.1-21-0.2c-7.2-0.1-14.3-0.1-21.5-0.1c-6.2,0-12.4-0.1-18.5-0.1c-3.7,0-7.4-0.1-11-0.1c-39.1-0.1-70.9-9.3-99.4-37.3
	c-20.5-20.8-33.6-50.4-33.6-79.7c0-1.6,0-1.6,0-3.1c0-3.5,0-6.9,0-10.4c0-2.5,0-5,0-7.5c0-7.5,0-15,0-22.4c0-3.5,0-7.1,0-10.6
	c0-11.8,0-23.5,0-35.3c0-3,0-6.1,0-9.1c0-0.8,0-1.5,0-2.3c0-12.2,0-24.5-0.1-36.7c0-12.6-0.1-25.2-0.1-37.8c0-7.1,0-14.1,0-21.2
	c0-6.7,0-13.3,0-20c0-2.4,0-4.9,0-7.3c-0.2-37,10.9-67.9,37.1-94.6C57.9,13.4,87.5,0.3,116.8,0.3z M111.1,21.4
	c-0.7,0.1-1.5,0.2-2.3,0.2C83.7,24.5,60.3,38.2,44,57.4c-20.5,26.6-23.6,54.2-23.6,86.9c0,2.2,0,4.4,0,6.5c0,5.9,0,11.8,0,17.6
	c0,3.7,0,7.4,0,11c0,12.9,0,25.7,0,38.6c0,12,0,23.9,0,35.9c0,10.3,0,20.6,0,30.9c0,6.1,0,12.3,0,18.4c0,5.8,0,11.6,0,17.3
	c0,2.1,0,4.2,0,6.3c0,10.2,0.1,20.3,1.1,30.4c0.1,1.2,0.1,1.2,0.2,2.4c2,18.7,10,36.3,21.9,50.7c0.8,1,1.6,1.9,2.4,3
	c17.9,21,42.9,32.1,70.1,34.7c10.4,0.8,20.8,0.6,31.2,0.6c2.1,0,4.3,0,6.4,0c7.9,0,15.7,0,23.6-0.1c26.4-0.1,26.4-0.1,53.3-0.1
	c0-46.9,0-93.7,0-142c-24.3-0.5-24.3-0.5-49-1c-6-4-6-4-7-7c-0.1-2.2-0.1-4.5-0.1-6.7c0-0.7,0-1.4,0-2.1c0-2.2,0-4.5,0-6.7
	c0-1.6,0-3.1,0-4.7c0-3.3,0-6.5,0-9.8c0-4.2,0-8.4,0-12.5c0-3.2,0-6.4,0-9.6c0-1.5,0-3.1,0-4.6c0-2.2,0-4.3,0-6.5c0-1.2,0-2.5,0-3.7
	c0.2-3,0.5-4.7,2.2-7.1c3-2,5.5-2.3,9-2.3c1,0,2,0,3-0.1c1.6,0,1.6,0,3.3,0c1.1,0,2.2,0,3.3-0.1c3.5-0.1,7.1-0.1,10.6-0.2
	c2.4,0,4.8-0.1,7.2-0.1c5.9-0.1,11.7-0.2,17.6-0.3c0-0.9,0-1.7,0-2.6c0-8.1,0.1-16.3,0.2-24.4c0-4.2,0.1-8.4,0.1-12.6
	c0-4.1,0.1-8.1,0.1-12.2c0-1.5,0-3.1,0-4.6c0-18.1,4.5-35.1,17.4-48.5c23-21.5,53.8-27.6,84.4-27.4c0.8,0,1.6,0,2.5,0
	c12.3,0,24.5,0.3,36.4,3.3c0.8,0.2,1.6,0.4,2.4,0.6c0.8,0.2,1.6,0.5,2.4,0.7c1.1,0.3,1.1,0.3,2.2,0.6c2.8,1.5,3.6,3.2,5,6.1
	c0.4,3,0.4,3,0.4,6.5c0,1.3,0,2.6,0,3.9c0,1.4,0,2.8,0,4.2c0,1.4,0,2.9,0,4.3c0,3,0,6,0,9c0,3.9,0,7.7,0,11.6c0,3,0,5.9,0,8.9
	c0,1.4,0,2.8,0,4.3c0,2,0,4,0,6c0,1.1,0,2.3,0,3.4c-0.4,3.4-1.3,5.3-3.4,8c-2.5,1.2-4.2,1.1-7,1.2c-1,0-2.1,0-3.2,0
	c-1.1,0-2.3,0-3.4,0c-2.4,0-4.8,0.1-7.2,0.1c-3.8,0-7.5,0.1-11.3,0.1c-3.6,0-7.3,0.1-10.9,0.1c-1.1,0-2.3,0-3.4,0
	c-1.1,0-2.1,0-3.2,0.1c-0.9,0-1.8,0-2.8,0c-3.1,0.5-5,1.5-7.6,3.4c-3.4,5-3.4,9.5-3.3,15.3c0,0.9,0,1.8,0,2.7c0,2.8,0.1,5.6,0.1,8.4
	c0,1.9,0,3.8,0,5.7c0,4.6,0.1,9.3,0.1,13.9c0.7,0,1.4,0,2.1,0c7.1,0.1,14.1,0.1,21.2,0.2c2.6,0,5.3,0.1,7.9,0.1
	c3.8,0,7.6,0.1,11.4,0.1c1.2,0,2.4,0,3.6,0c1.7,0,1.7,0,3.3,0.1c1.4,0,1.4,0,2.9,0c3.2,0.5,5.1,1.5,7.7,3.4c3.6,7.3,0.2,18.8-1,26.4
	c-0.2,1.4-0.4,2.7-0.6,4.1c-0.4,2.8-0.9,5.7-1.4,8.5c-0.6,3.6-1.1,7.3-1.7,10.9c-0.4,2.8-0.9,5.6-1.3,8.4c-0.3,2-0.6,4-0.9,6
	c-0.2,1.2-0.4,2.4-0.6,3.7c-0.2,1.1-0.3,2.1-0.5,3.2c-1,3.4-2.4,5.3-4.9,7.9c-14.9,5-31.3,1.6-47,2c0,46.9,0,93.7,0,142
	c35.3,0,65.1-0.1,93-23c1-0.8,1.9-1.6,3-2.4c19.4-16.5,31.7-40.4,34.2-65.7c0.1-0.9,0.2-1.7,0.3-2.6c0.9-10.2,0.9-20.5,0.9-30.8
	c0-2.2,0-4.4,0-6.5c0-5.9,0-11.7,0-17.6c0-6.2,0-12.3,0-18.5c0-10.3,0-20.7,0-31c0-11.9,0-23.8,0-35.7c0-10.3,0-20.6,0-30.8
	c0-6.1,0-12.2,0-18.3c0-5.8,0-11.5,0-17.3c0-2.1,0-4.2,0-6.3c0-10.1-0.2-20.2-1.1-30.3c-0.1-0.8-0.2-1.6-0.2-2.4
	c-2.8-25.4-16.6-48.7-35.8-65.2c-26.4-20.4-53.7-23.7-86-23.7c-2.2,0-4.4,0-6.6,0c-5.9,0-11.9,0-17.8,0c-3.7,0-7.4,0-11.2,0
	c-12.3,0-24.7,0-37,0c-0.7,0-1.3,0-2,0c-1,0-1,0-2,0c-10.7,0-21.5,0-32.2,0c-11.1,0-22.1,0-33.2,0c-6.2,0-12.4,0-18.6,0
	c-5.8,0-11.7,0-17.5,0c-2.1,0-4.3,0-6.4,0C131,20.2,121.1,20.3,111.1,21.4z"/>
</svg>
