<?xml version="1.0" encoding="utf-8"?>
<!-- Generator: Adobe Illustrator 24.0.1, SVG Export Plug-In . SVG Version: 6.00 Build 0)  -->
<svg version="1.1" id="Capa_1" xmlns="http://www.w3.org/2000/svg" xmlns:xlink="http://www.w3.org/1999/xlink" x="0px" y="0px"
	 viewBox="0 0 407.6 413.3" style="enable-background:new 0 0 407.6 413.3;" xml:space="preserve">
<path d="M239.1,4.2c1.2,0.3,1.2,0.3,2.5,0.5c37,8,70.5,25,98,51.1c2.5,2.4,2.5,2.4,5.2,4.5c2.2,1.8,3.9,3.5,5.7,5.6
	c1.8,2.1,3.6,4.2,5.5,6.2c26.4,28.3,43.6,67.1,49.2,105.1c0.1,0.8,0.2,1.5,0.3,2.3c7.3,50.9-4.8,104.5-35.5,146
	c-3.8,5-7.7,10-11.8,14.7c-0.8,0.9-1.5,1.7-2.3,2.6c-4.6,5.2-9.4,9.9-14.7,14.4c-0.9,0.8-1.8,1.6-2.8,2.5
	c-40.1,35.5-92.6,48.9-145.2,46.5c-28.9-1.9-61.3-10-85.8-26.2c-4.6-3-7-2.9-12.2-1.8c-2.3,0.8-4.5,1.7-6.8,2.7c-1,0.4-1,0.4-2,0.8
	c-1.4,0.6-2.8,1.2-4.2,1.8c-3,1.3-6.1,2.7-9.1,4c-1.6,0.7-3.3,1.4-4.9,2.1c-9.7,4.2-19.5,8.4-29.3,12.6c-3,1.3-6,2.5-9,3.8
	c-1.9,0.8-3.7,1.6-5.6,2.4c-0.8,0.4-1.7,0.7-2.6,1.1c-10.1,4.2-10.1,4.2-15.3,3c-3.1-1.8-4.6-3.3-6.4-6.4
	c-0.6-6.5,0.8-11.4,3.2-17.4c0.5-1.4,0.5-1.4,1-2.7c0.7-1.9,1.5-3.9,2.2-5.8c1.2-3,2.3-6.1,3.5-9.2c3.5-9.3,7-18.5,10.5-27.8
	c1.4-3.7,2.8-7.4,4.2-11c1-2.6,2-5.2,3-7.7c0.6-1.6,1.2-3.1,1.8-4.7c0.3-0.7,0.6-1.4,0.8-2.1c1.5-3.9,2.1-6.5,0.7-10.5
	c-0.8-1.8-0.8-1.8-1.9-3.5c-0.4-0.7-0.8-1.3-1.2-2c-0.4-0.7-0.9-1.4-1.3-2.2c-13.2-23-21.2-49-24.6-75.3c-0.1-0.7-0.2-1.5-0.3-2.2
	c-6-52.7,9.1-105.9,41.9-147.5c19.9-24.6,43.8-42.7,72.3-56.3c1.1-0.5,2.2-1,3.3-1.6C155.5,0.1,200.3-4.3,239.1,4.2z M69.1,77.2
	c-3.2,3.5-6.1,7.2-9,11c-0.7,0.9-1.4,1.7-2.1,2.6c-28.4,35.8-39.9,83-35.4,128.1c3.5,28.8,13,59.6,30.6,83c3.1,7.8-0.2,15.5-3,22.9
	c-0.4,1.1-0.8,2.2-1.2,3.3c-1.3,3.5-2.6,7-3.9,10.5c-0.9,2.3-1.7,4.6-2.6,7c-1.3,3.4-2.5,6.8-3.8,10.2c-3.3,8.8-6.4,17.5-9.5,26.4
	c3.3-0.6,6.3-1.4,9.4-2.7c0.8-0.4,1.7-0.7,2.5-1.1c0.9-0.4,1.8-0.8,2.7-1.2c0.9-0.4,1.9-0.8,2.9-1.2c3-1.3,6.1-2.6,9.1-3.9
	c2-0.8,4-1.7,6-2.5c1-0.4,2-0.8,3-1.3c2-0.8,3.9-1.7,5.9-2.5c4.7-2,9.4-4,14.1-6.1c0.9-0.4,1.7-0.7,2.6-1.1c1.6-0.7,3.2-1.4,4.8-2.1
	c4.2-1.8,7.5-3,12.1-2.3c2.7,1.2,2.7,1.2,5.4,2.8c1.5,0.9,1.5,0.9,3,1.8c1.1,0.6,2.1,1.3,3.2,1.9c43,24.8,92.5,31.5,140.6,19.2
	c27.9-7.5,52.8-21.9,73.7-41.7c1.2-1.1,2.5-2.1,3.8-3.1c31.6-26.8,48.6-71.7,52.1-112c3.3-48.9-12.2-97.8-44.4-134.9
	c-2.7-3.1-5.5-6-8.4-9c-0.5-0.5-1-1.1-1.5-1.6c-28.3-29.7-66-48-106.5-54.4c-1.6-0.3-1.6-0.3-3.3-0.5c-3.9-0.5-7.7-0.7-11.7-0.7
	c-0.7,0-1.5,0-2.3,0C154.4,21.4,106.9,38.3,69.1,77.2z"/>
<path d="M154.1,84.2c8.5,6.7,13.7,18.3,19.3,27.5c1.7,2.7,3.3,5.4,5.1,8.1c12.9,20.3,12.9,20.3,10.7,32.4
	c-3.8,10.2-14.7,18-23.1,24.4c-2,1.5-2,1.5-2.9,3.6c5.9,15.3,16.8,27.3,28,39c0.6,0.6,1.2,1.3,1.8,1.9c9,9.6,23.9,22.7,37.2,25.1
	c0.7-0.8,1.4-1.7,2.2-2.6c2-2.3,4-4.7,6-7c1.7-1.9,3.3-3.9,4.9-5.9c4.5-5.4,8.7-9.7,15.8-11.1c16.3-1.2,31.7,11.8,44.8,20.1
	c2.1,1.3,4.3,2.6,6.4,3.9c0.6,0.4,1.2,0.7,1.8,1.1c1.5,0.9,3,1.8,4.6,2.7c5.7,3.9,9.6,8.2,11.1,15c1.7,11.3-3.2,20.6-9.5,29.7
	c-10.8,13.7-25.3,25.9-43,29c-2.8,0.3-5.6,0.3-8.4,0.3c-0.8,0-1.5,0-2.3,0c-42.7-0.8-81.5-25.2-112-53.3c-1.6-1.4-3.2-2.8-4.9-4.1
	c-2.1-1.7-3.7-3.3-5.5-5.3c-2.2-2.6-4.4-5.1-6.6-7.6c-12.4-13.9-22.8-29.5-31.3-46c-0.3-0.6-0.6-1.2-1-1.8c-5.3-10.3-8.9-21-12-32.2
	c-0.3-1.2-0.7-2.4-1-3.7c-4.6-19.1-3.8-38.1,6.4-55.1C108.4,94.9,131.6,73.5,154.1,84.2z M134.5,104.6c-5.3,3.6-9.8,8.2-14.4,12.7
	c-1,0.9-1,0.9-1.9,1.9c-7.6,8.1-9.8,16.9-9.6,27.7c0.4,8.4,2,16.3,4.5,24.4c0.2,0.6,0.4,1.3,0.6,2c8.9,27.9,26.4,52.1,46.4,73
	c0.9,0.9,1.7,1.9,2.6,2.8c6.9,7.2,14.4,13.3,22.4,19.2c0.5,0.4,1.1,0.8,1.6,1.2c24.5,18,55.2,33.4,86.4,30.8c12-2.5,21.8-12.6,29-22
	c1.9-3.2,3.5-6.5,5-10c-3.7-4.1-7.5-6.6-12.4-9.2c-6.4-3.5-12.6-7.3-18.6-11.4c-6-4.6-6-4.6-13.1-6.1c-3.5,1.3-5.5,4.5-7.8,7.3
	c-0.5,0.6-1.1,1.3-1.6,1.9c-2.3,2.7-4.5,5.4-6.7,8.1c-3.8,4.5-6.9,7.7-13,8.7c-18.5,1.2-35.2-13.2-48.3-24.4
	c-2.6-2.3-5.1-4.6-7.6-6.9c-1.4-1.3-1.4-1.3-2.8-2.6c-14.8-14-32.7-34.3-33.5-55.6c0.3-7.5,3.8-11.6,9-16.6
	c3.5-3.2,7.2-6.1,10.9-9.1c2.3-1.9,4.4-3.9,6.5-6.1c-1.5-5.6-4.3-10-7.5-14.8c-4.6-7.2-9.1-14.4-13.2-21.9c-1.5-2.7-2.8-4.9-5.4-6.8
	C139.1,102,137.1,103.1,134.5,104.6z"/>
</svg>
